# xmcd
#
# Track frame offsets:
#	150
#	24598
#	44806
#	113436
#	138446
#	173041
#	193455
#	211122
#	238779
#
# Disc length: 3785 seconds
#
# Revision: 1
# Processed by: cddbd v1.5.2PL0 Copyright (c) Steve Scherf et al.
# Submitted via: audiograbber 1.83.01
#
DISCID=7f0ec709
DTITLE=Grateful Dead - 77-10-11 Lloyd Noble Centre, University of Oklahoma, Nor
DTITLE=man OK
DYEAR=1900
DGENRE=
TTITLE0=Help On The Way
TTITLE1=Slipknot!
TTITLE2=Franklin's Tower
TTITLE3=Jack Straw
TTITLE4=Peggy-O
TTITLE5=El Paso
TTITLE6=Sunrise
TTITLE7=Deal
TTITLE8=Let It Grow
EXTD=
EXTT0=
EXTT1=
EXTT2=
EXTT3=
EXTT4=
EXTT5=
EXTT6=
EXTT7=
EXTT8=
PLAYORDER=
